<svg xmlns="http://www.w3.org/2000/svg" viewBox="0 0 1000 1000" width="1000" height="1000">
  <defs>
    <linearGradient id="tile" x1="0" y1="0" x2="0" y2="1">
      <stop offset="0" stop-color="#FCFAFF"/>
      <stop offset="1" stop-color="#EDE2F8"/>
    </linearGradient>
  </defs>
  <rect x="0" y="0" width="1000" height="1000" rx="200" ry="200" fill="url(#tile)"/>
  <g transform="translate(50 50) scale(0.9)">
    
    <defs>
      <clipPath id="fav-clip"><path d="M90.6 647.7L92.5 652.3L91.4 654.4L93.4 658.1L95 658.3L95.2 659.4L99.8 659.6L101.1 660.6L101.6 663.1L102.9 664.2L105.2 670.6L111.2 671.7L110.4 671.3L111.5 671.2L114.5 672.7L119.7 680L120.5 683.1L121.7 683.6L122.3 686.9L124.1 687.9L126 698.5L125 704.4L124 705.1L124.1 704.4L123.4 704.6L123 705.5L123.6 705.1L124.4 706L124.3 710.4L122.9 713.1L121.6 712.4L119.4 712.8L119.2 718.4L113.5 727.6L112.9 732.8L111 738.5L111.2 744.5L116.3 759.7L117.2 759.4L121 763L121.4 762.2L124 761.4L126.4 761.7L131 765.6L133 764L135.9 757.3L136.8 756.9L137 754.9L141.8 753.3L144.4 751.5L145.5 751.7L146.8 750.4L151.2 750.3L153.1 747.9L154.1 745.5L153.3 744.3L153 739L154.3 729.1L156.2 726.9L162.3 726.5L165.6 723L169.3 721.2L171.3 713L173.3 711.3L176.9 710.9L180.1 712.8L179.7 713.5L180.8 714.3L181.2 716.1L180 718L179.1 717L179.7 716.4L178.7 715.6L177.9 719.3L178.8 721.4L180.7 720.8L180.4 719.7L182.1 717.8L186.7 717.1L198.1 720.7L201.3 722.7L202.4 724.9L203.8 725.3L207.4 724.6L208.4 723.7L209.7 724.3L210.2 723L211.8 723.2L211.8 722.1L214.2 721L214.4 719.2L215.6 718.5L217.2 715.6L219 715.1L221.5 715.7L224.4 713.4L224.1 711.4L220.7 709.7L220.9 706.7L218 705.3L217.3 704.1L211.9 701.8L207.9 701.6L203.2 698.8L202.2 696.1L200.8 695.8L198.1 689.5L190 683.4L188.3 680.6L188.2 677.9L185.7 677L184.5 675.3L184.3 672.9L179.7 670.1L177.5 671.6L173.4 671.4L167.8 673.9L164.5 673.2L161.2 671.2L159.6 668.9L156.5 666.6L155.6 664.8L154.4 664.6L153.6 662.9L153.1 663.3L151.3 661.8L149.8 659.3L149.8 659.8L148.8 659L144.5 658.5L140.5 656.3L140 654.7L139.8 655.3L138.7 651.9L139.2 647.9L138.7 648.2L138.7 647.4L140.8 639.6L140.3 640L140.3 639.4L142.4 633.7L149.2 620.6L157.5 611.8L159.1 612.5L162.9 611.8L167.5 614.7L173.5 612.1L179.4 612.6L179.7 613.8L181 614L185.2 618.1L185.9 619.5L185.4 620.7L186.1 620.1L185.6 620.9L186.7 621L186.7 621.6L186 621.2L186.1 623.4L188 623.4L191.2 626.7L195 628.7L197.5 634.1L198.9 640.6L199.1 639.9L202.4 641.3L201.9 642.1L202.4 641.3L205.1 641.5L204.6 642.8L207.5 642.9L204.9 643.5L205.6 644.9L205.1 646.1L204.6 645.5L204 646L204.1 644.7L202.3 643.6L202.1 642.6L200.8 643.6L201.4 643.7L200.3 643.9L201.9 647L207.1 649L208 646.3L210.1 644.5L210.9 642.7L211.9 642.4L214 638.5L221.5 631L224.5 629.8L224.2 629.1L224.4 630.1L226.2 629.3L235.2 621.4L236.3 621.5L236.2 620.5L236.9 621.1L237.3 619.8L237.1 621.2L237.5 619.6L241.5 616.6L250.3 611.3L256.2 608.8L264.3 606.8L264.4 607.7L265.2 607.6L264.7 606.6L265.5 606.9L265.5 604.8L266.5 605.6L272.3 602.9L272.6 603.6L267.3 605.8L265.7 607.8L267.6 606.5L274.3 606.8L275.6 607.6L275.9 607.2L275.5 607.8L279.2 608L279.8 609.3L280.1 608.2L280.8 608.3L280.4 609.5L282.3 610.1L283.6 608.6L283.8 610.2L284.2 609.6L292 613.4L295.1 617.4L297.5 618.7L303.6 625.2L307.4 626.1L308.1 627.1L316.8 628.5L319.3 630L320.6 631.9L320 632L326 637.4L326.8 639.2L332.5 643.3L333.5 641.8L332.5 643.3L335.1 644.7L335.6 646.1L339.3 648L343.1 648.7L346.5 653.1L349.2 653.5L352.8 656.1L356 656.4L358.8 658.9L360.5 659.4L364.2 663.1L372.5 665.2L372.3 666.3L372.8 665.8L373.8 667L372.1 666.6L377.7 669.6L383.4 670.9L386.4 670.7L386.8 671.8L387.6 671.6L386.6 672L387.8 672.4L388.6 671.6L391.5 672.4L396 677.4L401.1 679.5L407.8 684.3L410.1 687.7L410.5 690.1L418.6 697.6L417.8 694.5L419.3 688.1L420.7 685.5L422.4 684.2L422.8 682.3L423.3 682.7L424.5 680.8L424.1 677.5L425.6 672.9L425 672L426.8 661.8L425.3 660.8L425.6 659.1L424.1 656.4L424.2 654.6L425.8 650.3L427.9 648.8L425.4 650.9L425.2 649.6L426.1 649.8L426 648.2L427.2 649L425.8 648.1L426 647.1L432.4 632.8L438.4 622.4L449.6 607.2L454.6 601.3L455.7 601.6L455.5 600.6L456 602L455.6 600.5L457.2 598.8L471.6 584.5L472.7 584.6L472.4 583.6L472.8 584.5L472.5 583.6L481.5 575L496.7 564.8L497.5 565.2L506.4 560.3L514.9 558.2L518.9 558.4L518.9 559.4L519.4 558.5L520.8 559.3L521.3 558.8L521.4 559.5L522.6 559.1L521.4 559.9L522.5 559.2L523.2 560.1L523.2 559.3L523.4 560.4L524.3 560.6L524.4 561.8L523.3 562.4L523 561.9L523.4 562.5L526 562.7L527.4 564.2L530.7 564.9L531.4 566L535 566.5L539 565L541.2 565.6L548.6 565L556.8 567.4L562.2 567.4L563.2 566.7L557.5 562.1L557.4 560.4L559.5 555.7L562.6 552L565.9 551L569.7 552.4L567.5 554.1L568.2 555.6L567.7 556.9L569.7 557.1L569.7 558.5L571.4 559.3L571.9 560.6L574.3 560L576.2 561.2L576.8 559.9L581 561.1L582.8 559.6L585.8 558.7L586.4 554.9L591.5 552.9L591.6 550.2L592.7 548.7L594.6 548.5L594.2 549.2L595 548.6L595.6 549.4L595.2 550L597.6 549.6L598.2 548.7L599.7 548.9L598.5 547.8L594.3 547.8L594.1 543.3L597.2 540L599.4 539.3L602.3 541.1L610.2 536.7L613.3 537.2L614.1 535.9L614.5 536.5L616.1 535.5L623.5 534.5L629.8 534.9L630.9 536.9L629.9 537.2L630.1 538.2L631.4 537.8L632.8 536.3L631.5 535.7L631.9 535L631.3 535.7L631.5 534.3L633.3 534.7L633.4 531.8L635.9 530.4L635.1 529L636.6 523L637.4 522.6L636.9 522.1L638.3 521.7L637.6 522.7L638.2 522.2L639 522.8L639.7 520.6L641 519.9L640.7 518.8L642 517.8L645.4 517.2L647.2 518.5L647.2 517.4L648.3 516.4L650.9 515.2L652.3 516.3L653 514.9L654.7 515.4L657.8 512.1L659.9 511L659.4 510L660.4 508.9L655.5 508.2L655.3 507.2L654.2 507.4L653.6 508L654.2 508.4L652.5 507.8L651.4 509.2L644.7 508.2L642.2 511.8L638 513.9L638.7 514.7L638.1 514.5L637.8 515.6L632.6 519L632.8 519.9L629.9 524.3L622.1 521L620.8 521.1L613.4 513.7L609.6 506.8L608.2 502.3L606.5 491L604.4 486.6L604.7 485.4L604.5 486L603.6 484.1L604.1 482.8L601.9 481.3L601.5 479.4L602.1 480.2L602.4 479.1L601.7 478.6L602.5 478.1L608.6 479.8L608.5 480.7L606.2 482.3L609.2 480.7L608.2 481.7L608.9 482.1L610.6 480.8L609.8 482.3L612.1 481.9L611.7 481.5L612.4 481.1L614.3 482L614.5 483L615 482.5L613.6 483.5L614.8 483.7L615.1 483L615.3 483.7L615.5 483.2L615.1 485.8L612.2 485.7L612.1 486.7L610.2 486.2L612.7 487.4L610.3 487.5L614.5 487.6L615.8 486.7L616.4 485.5L615.8 483.3L611.9 480.7L606.6 479.3L596.6 474.9L596.3 472.7L595.5 472.2L596.5 472.7L590 462.1L589.2 454.6L591.3 452.7L592.1 450.3L592.5 443L596.8 433.6L605.9 422.1L606.5 420.7L606 418L607.9 412.4L614.4 404.8L616.2 400.7L616.2 398.2L618 396.1L618.1 394.5L616.3 391.5L615.9 385.9L614.5 385L613.6 385.6L612.2 389.3L610.8 389.6L609.9 392.1L604.7 397.5L601.5 404.3L594.8 408.4L594.6 409.5L590.9 411.9L590 413.6L584.9 416.6L583.2 420.2L582.6 419.7L582.5 420.8L581.2 420.8L578.3 424.4L577.4 424L575.4 428.6L569.2 432.9L567.8 434.6L567.9 435.8L565.2 437L564.2 438.4L558.5 439.7L553.4 440.2L552.2 439.6L551.5 440.5L552.2 439.5L551.4 440.3L546.1 440.2L535.6 438.8L523.2 435.5L517.4 431.8L517.7 430.6L515.9 428.1L516.3 426.8L516.8 427.1L515.5 426.5L516.7 426.3L515 426.5L513.3 424.6L513.9 422.2L513 421.6L513.5 418.5L512.2 414.9L510 416.3L507.1 416.1L500.8 414.6L498.8 412.8L496 413.5L477.9 409.1L468.9 406.3L469 405.4L462.6 403.6L453.6 399.7L454.6 399.3L453.6 399.7L447.8 396.9L433.6 389.4L430.4 386.8L431 386L429.4 385.9L428.7 384.1L429.6 384.2L429.4 383.5L428 381.7L417 374.9L416.1 372.5L415.4 372.7L404.6 365.2L401.1 362.5L401.1 360.8L399.4 361.2L394.2 357.2L391.8 353.2L389.8 351.8L389.8 351L390.3 351.3L388.8 350.2L388.3 348.3L387.4 348.3L382.2 342.3L379.1 340.2L377.8 338.8L378.1 337.8L376.7 338L374.1 335.3L370.5 331.3L368.9 328L367 326.5L367.1 325.2L365.4 323.5L365.1 322L362.9 320.8L360.5 314.9L358.8 314.1L356.2 310.5L357 309.3L356.3 309.8L356.7 308.3L355.5 307.1L356 305.4L351.8 301.5L351.3 296.7L349.8 296.2L349.9 295.2L349.8 295.8L348.8 295.2L347.9 293.7L348.4 292.7L347.4 293.3L348.4 292.7L346.4 292.4L339.7 285.3L325.8 268.7L317.1 256.1L305.9 248.8L302.7 241.8L300.3 240.6L298.1 238.1L297.4 234.5L296.3 233.2L295.8 233.7L295.9 232.9L295 232.8L290.9 234.4L290.8 235.5L289.5 236.5L289 240.3L289.6 240.8L288.2 243.5L285.7 245.9L282 247.8L278.9 248.2L277.1 247L276.9 248.3L275.4 249L273.5 249.2L273.4 247.9L273.3 248.5L272 248.5L271.6 247.6L271.1 248.1L271.4 247.3L270.8 247.3L271 248.3L270.7 246.8L271.4 246.7L270.9 246.3L272.4 246.8L270.4 246L269.5 243.9L267.4 242.4L266.6 248.1L268.7 254L266.7 258.3L263.8 260.5L264.3 260L265 260.5L263.7 260.6L264.9 260.9L264.9 263.4L260.7 270L260.4 274.5L262.3 280.9L269.3 296.3L275.7 313.3L276 317.2L276.4 316.3L280.8 336.3L280 335.8L281.4 344.1L281.2 351.4L278.5 360.4L278.4 368.6L277.2 373.6L273.7 378.8L273.3 380.9L272.5 380.7L273.2 380.9L272.5 381.2L273 381.9L272.2 382L272.2 380.7L270.1 387.8L269.1 388.8L267.9 389L268.4 388.2L267.8 388.7L268.8 398.3L268.3 411.4L269.2 424L267.7 432.6L266.4 432.9L267.6 433.3L266.7 434.8L267.7 437L266.3 435.8L266.1 434.3L266.5 437.8L265.8 439.7L263.1 444.5L259.5 447.8L258.5 447.4L257.1 448.7L256.7 448L257.3 447.7L254.9 448.1L253.3 450.7L249.9 450.8L243.3 454.5L241.5 457.2L240.9 460.3L237.8 465.1L239.9 475.6L241.2 478.8L242.9 480.7L243.1 482.5L240.5 491.8L247.1 504.3L246.8 516.1L237.9 528.8L236.5 530.2L235.1 530.1L236 531L235.1 530.3L235 531L235.8 531.2L234.1 531.8L234.5 534.7L232.8 532.8L229.8 536.3L222.2 540.1L215.2 536.6L210.6 535.6L209.7 534.2L209.7 535.2L208.1 534.1L207.9 532.9L206.9 532.4L207.2 531.6L208.2 531.6L208.8 529.9L207.8 527.8L204.8 527.8L202.4 529.2L199.8 529.3L198.7 531.5L194.8 532.2L193.6 530.7L192.7 533L187.1 533.5L187.2 532.7L185.6 532.3L186 530.7L186.3 531.3L185.6 529.4L182.2 528.5L181.9 527.4L180.3 526.4L173.2 524.5L172.6 523.2L173.1 522.8L173.3 523.6L173.5 521.9L172.4 521.8L172 520.2L169.8 520.5L169.2 519.8L169.9 519.9L167.3 518.7L162.9 514L162.3 512.3L160.9 512.6L159.4 510.6L156.1 510.6L157 511.5L156 514L153.1 516.1L150.9 515.4L148.4 516.2L145.3 515.6L146.6 517.9L145.3 521.9L144.3 522.3L145 523.1L144.8 524.4L143.4 525.3L144.3 525.8L143.2 530.2L146.6 535.5L153.1 540.3L155 544.7L155.9 545.1L156.4 547.7L159.3 550.3L160.5 553.2L160.1 554.5L160.5 553.9L161 554.7L162.5 554.9L162.3 559.1L160.9 558.8L161.8 559.1L161 559.7L161.7 559.9L161.2 560.7L160.4 560.5L160.6 559.1L160 561.2L151.9 566.1L150.5 568.5L149.4 568.7L146.4 574.5L147.3 576L146.4 574.5L145.3 577.1L141.3 580.8L141.4 587.4L138.1 588.7L135.8 588.7L134.6 584.8L135.1 585.1L131.9 583.3L130.2 581L127.4 585.8L125.9 590.8L119.6 593.9L118.8 596.6L117 598.2L113.4 599.2L111.7 598.5L105.6 599L100.3 601.9L95.9 609.5L98.2 619.6L97.9 623.4L98.8 627.8L97.8 629L98.1 632.5L95.2 639.5L93.5 641.8L92 642.3L90.6 647.7ZM758.4 371L759.7 372.8L762.9 374.2L767.5 374.5L770.9 371.3L770.6 370.3L773.5 363.9L778.8 357.8L782 356.1L785.5 357.3L789.8 355.7L791.3 356.1L794.5 352.1L795.6 352L796.8 347.1L798.4 344.4L800.6 342.7L803.3 337.3L804.5 337.5L804.7 336.4L806.5 336.2L807.6 333.7L811.4 330.8L812.6 330.8L815.3 328.8L817.6 328.6L819 325.6L821.2 324.2L823.6 324.1L828 319.3L829.7 314.7L833.1 310.8L829.3 307.8L830.1 304.9L833.6 301L836.3 299.7L840.1 300L840.5 303.4L845.7 307.2L851.8 304.9L854.5 305.3L855.6 304.4L856.9 305.4L859.8 301.9L864.4 299.8L868.7 293.1L871.1 291.7L872.2 289.2L875.3 285.8L880.9 282.6L881.7 281.4L884.1 281.1L888.5 276.6L891 276.5L892.1 274.3L894.3 272.6L902.8 270.2L904 270.6L906.9 267.7L909 268.2L910.9 266.7L912.5 267.3L912.9 265.2L913.7 265.2L913.5 264.4L917.1 262.4L919 260.1L926.1 257.1L927.2 257.7L927.5 256.9L936 256.8L939.1 258.7L941.6 256.9L945.2 256.9L945.8 255.8L945.3 254.6L947 252.9L948.4 249.4L946.4 246.4L944 245.2L943.8 242.4L944.4 240.8L949.4 238.1L950 235L949.5 233.1L944.8 229.3L939.7 228.5L936.6 228.5L933.4 230.3L927.2 231L925.2 235.6L923.1 236.9L920.4 237.2L918.3 241.2L914.9 242.6L914 244.7L911.7 246.1L910.2 248.7L911 250.8L908.6 252.8L909.2 253.9L905.9 255.7L905.3 258.1L904.3 257.7L899.1 260.6L898.2 262.8L895.9 263.9L881.3 267L871.3 266.6L868.5 265.1L868.4 264L867.5 264.3L867.9 263.8L866.7 262.9L865.5 257.7L866.4 257.1L864.4 255L863 250.9L863.6 250.2L862.5 248.6L862.6 246.1L858.9 243.8L856.5 245.2L851.7 253L852.8 260.7L853.9 262L853.3 266.2L854.8 267.3L853.7 271.4L851.1 273.6L849.1 272.3L844.5 273.7L843.9 275.2L840.9 275.4L839.7 278L840.8 278.5L839.7 278L838.2 278.7L838.2 280.8L837 282.1L837.2 287.5L831.9 290.6L826.5 289.3L825.3 288.1L825.5 286.9L824 286.2L822.3 286.7L819.3 285.2L818.4 286.3L821.4 287.6L822.1 291.3L821.2 291.9L821.1 295.7L819.9 297L820.8 299.1L820.1 299.4L820.5 300.7L814.5 304L807.7 311.9L796.8 317.4L794.6 325.2L790.4 326.7L787.8 323.8L784.8 322.5L781.3 323.9L781.7 327.6L783.6 330L790.1 331.2L790.6 334.4L789.3 339.5L784 345.3L780.8 347.1L778.7 347.2L778.4 346.2L777.3 345.8L777.4 344.9L776.3 345.1L776.2 344.3L772.4 344.4L772.5 345.5L774.9 347.1L774.9 349.9L774.2 352.4L771.1 355.2L769.5 354.8L767.8 352.5L766.9 348L765.2 353.3L767.3 358.5L764.6 361.7L762.1 362.3L760.9 363.8L758.4 371ZM621 451.7L622.1 453L623.5 457.7L622.8 461.6L624.3 465.8L625.3 466L624.3 465.6L630.8 463.9L635.3 464.3L633.8 472.1L634.6 474.4L635.7 471.9L637.6 450L639 446.5L640.3 446.6L644.7 441.3L646.9 441.8L650.7 441L655.5 438.3L657 438.3L657.9 432.2L659.3 430.5L660.4 426.8L662.7 425.4L664 425.7L663.6 426.9L666.1 426.8L664.9 425.6L665.3 420.7L666.3 419.9L667.3 416.7L668.5 417.4L668.1 415.7L670.2 412L672.3 409.9L674.4 409.8L676.2 407.4L679.9 406.7L680.7 405.5L682 405.8L683.8 399.7L688 395.6L693.4 394.5L705.5 393.9L706.4 392.1L709.9 389.6L710 388.6L712.4 388L711.7 387.3L712.1 385.9L714.2 383.1L718.2 381L720.3 380.8L723.3 384.1L723.9 383.8L724.8 382.3L727.8 380.4L729.5 374.4L732 370.8L727.9 373.6L722.5 375.1L709.4 375.6L700.3 370.8L698.9 367.3L695.9 365.8L695.3 364.2L693.5 363.8L693.7 362.7L689.8 363.9L685.3 368.3L682.5 375.5L678.2 380.4L677.7 385.9L676.5 388.4L672.5 393.5L671.5 393.6L667.2 397L662.3 406L657.7 410.2L653.5 416L653.4 422.8L651 424.7L647.1 426.2L647.2 428L639.8 433.2L638.9 435.8L636.3 436.8L633.8 438.4L633.6 439.8L628 442.6L625.3 448.6L621.8 449.8L621 451.7ZM732.7 462.6L733.8 462.3L733.4 463.4L734.9 463.7L735.4 462.7L734.8 461.4L736.5 461.1L736.2 464.2L737.3 465.9L738.9 466.5L737.8 467.8L741.1 467.4L742.6 465.4L741.4 465.1L743.1 462.4L745.5 463.9L746.7 463.2L746.2 462.3L748.2 462.1L748.1 461.2L749.6 461.6L750.4 460.8L750.1 459.7L751.7 460.7L752.4 459.1L751.8 457.8L752.6 457.1L753.1 458L753.9 456.4L756.2 457.7L757.1 456.7L757.6 457.1L755.4 455.8L757.4 453.8L758.7 454.5L760.4 453.5L762.2 454.6L762.9 453.9L762.6 451.5L764.2 450.7L763.2 449.9L763.7 449.3L763 449.8L761.7 449.3L759.9 446.4L757.6 445.4L757 443.9L754.7 444.3L755.5 446L755 446.8L754.2 446.6L754.2 445.3L753.5 446.3L751.9 445.2L752.4 447L753.2 447.4L752.6 447.8L751.8 446L750.6 445.5L745.4 449.7L745.5 450.7L748.1 451.7L748.1 453.5L747.5 452.1L745.5 451.2L744.4 451.5L744.3 452.4L743.4 451.4L739.9 451.7L736.5 453.1L735.3 452.6L733 454.3L732.8 455.5L734.7 458.2L734.8 459.6L733.9 459.9L732.7 462.6ZM218.8 276.3L220 276.9L220.1 279.5L222.5 282.7L229.2 287.9L230 287.5L229.8 286.7L230 287.4L233.7 286.3L234.3 284.5L237.9 281L237.4 276.7L235.4 272.6L232.1 269.9L231.8 270.7L228.5 270L228.7 268.5L228 268.8L225.6 266.8L221.2 270.4L220.9 271.4L221.8 272.7L221 271.5L219.7 272L220.2 275.8L218.8 276.3ZM56.7 666.6L58.4 670.2L58.1 678.6L60.3 679.6L60.9 681.2L61.2 679.4L64.3 678.3L66.1 675.2L67.7 668L67.2 665.1L71.3 658.6L71.2 655.3L69 657.8L62.1 660L59.5 660L56.8 664.6L57.2 665.9L56.7 666.6ZM203.6 241.3L204.6 242.6L203.7 243.8L205.2 244.2L206.3 245.6L205.2 246.7L206 247.7L205.4 248.9L206 250.5L205.2 251.3L206.8 255L207.1 258L209 260.4L209.2 262.8L208.2 263.7L209.3 265L210.9 265L212.2 259.2L211.5 256.5L212.4 254.8L212.1 247.8L213.2 245.6L210 240.9L210.1 243.5L208 244.5L206 243.8L203.7 240.4L203.6 241.3ZM683.1 491.3L684.5 491.4L686 494L687.3 494.8L687.7 497L688.7 497.9L688.5 499.5L695.8 495.6L696.1 494.8L694.4 493.6L696.8 489.8L692.9 489.7L690.9 487.9L683.1 491.3ZM664.7 500L667.9 501.1L668.1 502.6L667.3 503.3L667.5 504L668.4 503.7L668.1 504.9L669.3 503.7L673.4 503.8L671.4 501.8L671.7 500.7L672.9 500.3L672.2 499.7L669.8 501L667.5 500.4L667 499L664.7 500ZM679.9 505.5L681.6 506.8L683.5 504.9L685.5 505.3L686.4 503.1L687.8 503L687.9 502.2L687 500.8L685.4 501.9L685.7 503.8L684.3 504L684.4 502.8L683.6 502.7L683.1 504.2L682.1 503L679.9 505.5ZM703 477.7L711.2 478.9L710.7 476L708.6 476.2L708.5 475.4L707 474.6L706.8 476.1L705.6 477.3L703 477.7ZM50 750.2L50.5 753L54.7 751.3L53.3 749.3L50.7 749.2L50 750.2ZM234.3 375.4L234.6 376.2L236.9 375.9L238.3 374.4L238 372.8L237 372.8L234.3 375.4ZM242.7 373.5L246.9 374.2L247.4 372.6L247 371.9L245.4 372.1L242.7 373.5ZM676.3 511L678.2 512.2L679.7 509.9L678.1 510.8L676.9 510.2L676.3 511ZM638.7 531.8L639.7 532.2L640.8 531.1L639.4 530.2L638.7 531.8ZM93.3 770.6L93.8 771.5L94.6 771.3L95.4 770L94.2 769.8L93.3 770.6ZM570.7 565.7L572.1 564.4L571.5 563.2L570.7 565.7ZM742.1 464.7L742.9 464.7L743.1 465.6L744 464.6L742.7 464L742.1 464.7ZM751.8 462.2L753.4 461.6L753.1 460.5L751.8 462.2ZM592.4 552.8L594.4 552L592.5 551.8L592.4 552.8ZM692.1 505.2L692.9 505.5L693.5 504.1L692.1 505.2ZM279.5 612.9L282.2 612.3L283 611.1L282.2 612.3L279.5 612.9Z"/></clipPath>
      <linearGradient id="fav-fill" x1="0" y1="380" x2="0" y2="1000" gradientUnits="userSpaceOnUse">
        <stop offset="0" stop-color="#A880C8"/>
        <stop offset="1" stop-color="#9168B6"/>
      </linearGradient>
    </defs>
    <g clip-path="url(#fav-clip)">
      <rect x="0" y="0" width="1000" height="1000" fill="#E0CDEE"/>
      <rect x="0" y="380" width="1000" height="620" fill="url(#fav-fill)"/>
      <rect x="0" y="368" width="1000" height="24" fill="#F4D35E"/>
    </g>
    <path d="M90.6 647.7L92.5 652.3L91.4 654.4L93.4 658.1L95 658.3L95.2 659.4L99.8 659.6L101.1 660.6L101.6 663.1L102.9 664.2L105.2 670.6L111.2 671.7L110.4 671.3L111.5 671.2L114.5 672.7L119.7 680L120.5 683.1L121.7 683.6L122.3 686.9L124.1 687.9L126 698.5L125 704.4L124 705.1L124.1 704.4L123.4 704.6L123 705.5L123.6 705.1L124.4 706L124.3 710.4L122.9 713.1L121.6 712.4L119.4 712.8L119.2 718.4L113.5 727.6L112.9 732.8L111 738.5L111.2 744.5L116.3 759.7L117.2 759.4L121 763L121.4 762.2L124 761.4L126.4 761.7L131 765.6L133 764L135.9 757.3L136.8 756.9L137 754.9L141.8 753.3L144.4 751.5L145.5 751.7L146.8 750.4L151.2 750.3L153.1 747.9L154.1 745.5L153.3 744.3L153 739L154.3 729.1L156.2 726.9L162.3 726.5L165.6 723L169.3 721.2L171.3 713L173.3 711.3L176.9 710.9L180.1 712.8L179.7 713.5L180.8 714.3L181.2 716.1L180 718L179.1 717L179.7 716.4L178.7 715.6L177.9 719.3L178.8 721.4L180.7 720.8L180.4 719.7L182.1 717.8L186.7 717.1L198.1 720.7L201.3 722.7L202.4 724.9L203.8 725.3L207.4 724.6L208.4 723.7L209.7 724.3L210.2 723L211.8 723.2L211.8 722.1L214.2 721L214.4 719.2L215.6 718.5L217.2 715.6L219 715.1L221.5 715.7L224.4 713.4L224.1 711.4L220.7 709.7L220.9 706.7L218 705.3L217.3 704.1L211.9 701.8L207.9 701.6L203.2 698.8L202.2 696.1L200.8 695.8L198.1 689.5L190 683.4L188.3 680.6L188.2 677.9L185.7 677L184.5 675.3L184.3 672.9L179.7 670.1L177.5 671.6L173.4 671.4L167.8 673.9L164.5 673.2L161.2 671.2L159.6 668.9L156.5 666.6L155.6 664.8L154.4 664.6L153.6 662.9L153.1 663.3L151.3 661.8L149.8 659.3L149.8 659.8L148.8 659L144.5 658.5L140.5 656.3L140 654.7L139.8 655.3L138.7 651.9L139.2 647.9L138.7 648.2L138.7 647.4L140.8 639.6L140.3 640L140.3 639.4L142.4 633.7L149.2 620.6L157.5 611.8L159.1 612.5L162.9 611.8L167.5 614.7L173.5 612.1L179.4 612.6L179.7 613.8L181 614L185.2 618.1L185.9 619.5L185.4 620.7L186.1 620.1L185.6 620.9L186.7 621L186.7 621.6L186 621.2L186.1 623.4L188 623.4L191.2 626.7L195 628.7L197.5 634.1L198.9 640.6L199.1 639.9L202.4 641.3L201.9 642.1L202.4 641.3L205.1 641.5L204.6 642.8L207.5 642.9L204.9 643.5L205.6 644.9L205.1 646.1L204.6 645.5L204 646L204.1 644.7L202.3 643.6L202.1 642.6L200.8 643.6L201.4 643.7L200.3 643.9L201.9 647L207.1 649L208 646.3L210.1 644.5L210.9 642.7L211.9 642.4L214 638.5L221.5 631L224.5 629.8L224.2 629.1L224.4 630.1L226.2 629.3L235.2 621.4L236.3 621.5L236.2 620.5L236.9 621.1L237.3 619.8L237.1 621.2L237.5 619.6L241.5 616.6L250.3 611.3L256.2 608.8L264.3 606.8L264.4 607.7L265.2 607.6L264.7 606.6L265.5 606.9L265.5 604.8L266.5 605.6L272.3 602.9L272.6 603.6L267.3 605.8L265.7 607.8L267.6 606.5L274.3 606.8L275.6 607.6L275.9 607.2L275.5 607.8L279.2 608L279.8 609.3L280.1 608.2L280.8 608.3L280.4 609.5L282.3 610.1L283.6 608.6L283.8 610.2L284.2 609.6L292 613.4L295.1 617.4L297.5 618.7L303.6 625.2L307.4 626.1L308.1 627.1L316.8 628.5L319.3 630L320.6 631.9L320 632L326 637.4L326.8 639.2L332.5 643.3L333.5 641.8L332.5 643.3L335.1 644.7L335.6 646.1L339.3 648L343.1 648.7L346.5 653.1L349.2 653.5L352.8 656.1L356 656.4L358.8 658.9L360.5 659.4L364.2 663.1L372.5 665.2L372.3 666.3L372.8 665.8L373.8 667L372.1 666.6L377.7 669.6L383.4 670.9L386.4 670.7L386.8 671.8L387.6 671.6L386.6 672L387.8 672.4L388.6 671.6L391.5 672.4L396 677.4L401.1 679.5L407.8 684.3L410.1 687.7L410.5 690.1L418.6 697.6L417.8 694.5L419.3 688.1L420.7 685.5L422.4 684.2L422.8 682.3L423.3 682.7L424.5 680.8L424.1 677.5L425.6 672.9L425 672L426.8 661.8L425.3 660.8L425.6 659.1L424.1 656.4L424.2 654.6L425.8 650.3L427.9 648.8L425.4 650.9L425.2 649.6L426.1 649.8L426 648.2L427.2 649L425.8 648.1L426 647.1L432.4 632.8L438.4 622.4L449.6 607.2L454.6 601.3L455.7 601.6L455.5 600.6L456 602L455.6 600.5L457.2 598.8L471.6 584.5L472.7 584.6L472.4 583.6L472.8 584.5L472.5 583.6L481.5 575L496.7 564.8L497.5 565.2L506.4 560.3L514.9 558.2L518.9 558.4L518.9 559.4L519.4 558.5L520.8 559.3L521.3 558.8L521.4 559.5L522.6 559.1L521.4 559.9L522.5 559.2L523.2 560.1L523.2 559.3L523.4 560.4L524.3 560.6L524.4 561.8L523.3 562.4L523 561.9L523.4 562.5L526 562.7L527.4 564.2L530.7 564.9L531.4 566L535 566.5L539 565L541.2 565.6L548.6 565L556.8 567.4L562.2 567.4L563.2 566.7L557.5 562.1L557.4 560.4L559.5 555.7L562.6 552L565.9 551L569.7 552.4L567.5 554.1L568.2 555.6L567.7 556.9L569.7 557.1L569.7 558.5L571.4 559.3L571.9 560.6L574.3 560L576.2 561.2L576.8 559.9L581 561.1L582.8 559.6L585.8 558.7L586.4 554.9L591.5 552.9L591.6 550.2L592.7 548.7L594.6 548.5L594.2 549.2L595 548.6L595.6 549.4L595.2 550L597.6 549.6L598.2 548.7L599.7 548.9L598.5 547.8L594.3 547.8L594.1 543.3L597.2 540L599.4 539.3L602.3 541.1L610.2 536.7L613.3 537.2L614.1 535.9L614.5 536.5L616.1 535.5L623.5 534.5L629.8 534.9L630.9 536.9L629.9 537.2L630.1 538.2L631.4 537.8L632.8 536.3L631.5 535.7L631.9 535L631.3 535.7L631.5 534.3L633.3 534.7L633.4 531.8L635.9 530.4L635.1 529L636.6 523L637.4 522.6L636.9 522.1L638.3 521.7L637.6 522.7L638.2 522.2L639 522.8L639.7 520.6L641 519.9L640.7 518.8L642 517.8L645.4 517.2L647.2 518.5L647.2 517.4L648.3 516.4L650.9 515.2L652.3 516.3L653 514.9L654.7 515.4L657.8 512.1L659.9 511L659.4 510L660.4 508.9L655.5 508.2L655.3 507.2L654.2 507.4L653.6 508L654.2 508.4L652.5 507.8L651.4 509.2L644.7 508.2L642.2 511.8L638 513.9L638.7 514.7L638.1 514.5L637.8 515.6L632.6 519L632.8 519.9L629.9 524.3L622.1 521L620.8 521.1L613.4 513.7L609.6 506.8L608.2 502.3L606.5 491L604.4 486.6L604.7 485.4L604.5 486L603.6 484.1L604.1 482.8L601.9 481.3L601.5 479.4L602.1 480.2L602.4 479.1L601.7 478.6L602.5 478.1L608.6 479.8L608.5 480.7L606.2 482.3L609.2 480.7L608.2 481.7L608.9 482.1L610.6 480.8L609.8 482.3L612.1 481.9L611.7 481.5L612.4 481.1L614.3 482L614.5 483L615 482.5L613.6 483.5L614.8 483.7L615.1 483L615.3 483.7L615.5 483.2L615.1 485.8L612.2 485.7L612.1 486.7L610.2 486.2L612.7 487.4L610.3 487.5L614.5 487.6L615.8 486.7L616.4 485.5L615.8 483.3L611.9 480.7L606.6 479.3L596.6 474.9L596.3 472.7L595.5 472.2L596.5 472.7L590 462.1L589.2 454.6L591.3 452.7L592.1 450.3L592.5 443L596.8 433.6L605.9 422.1L606.5 420.7L606 418L607.9 412.4L614.4 404.8L616.2 400.7L616.2 398.2L618 396.1L618.1 394.5L616.3 391.5L615.9 385.9L614.5 385L613.6 385.6L612.2 389.3L610.8 389.6L609.9 392.1L604.7 397.5L601.5 404.3L594.8 408.4L594.6 409.5L590.9 411.9L590 413.6L584.9 416.6L583.2 420.2L582.6 419.7L582.5 420.8L581.2 420.8L578.3 424.4L577.4 424L575.4 428.6L569.2 432.9L567.8 434.6L567.9 435.8L565.2 437L564.2 438.4L558.5 439.7L553.4 440.2L552.2 439.6L551.5 440.5L552.2 439.5L551.4 440.3L546.1 440.2L535.6 438.8L523.2 435.5L517.4 431.8L517.7 430.6L515.9 428.1L516.3 426.8L516.8 427.1L515.5 426.5L516.7 426.3L515 426.5L513.3 424.6L513.9 422.2L513 421.6L513.5 418.5L512.2 414.9L510 416.3L507.1 416.1L500.8 414.6L498.8 412.8L496 413.5L477.9 409.1L468.9 406.3L469 405.4L462.6 403.6L453.6 399.7L454.6 399.3L453.6 399.7L447.8 396.9L433.6 389.4L430.4 386.8L431 386L429.4 385.9L428.7 384.1L429.6 384.2L429.4 383.5L428 381.7L417 374.9L416.1 372.5L415.4 372.7L404.6 365.2L401.1 362.5L401.1 360.8L399.4 361.2L394.2 357.2L391.8 353.2L389.8 351.8L389.8 351L390.3 351.3L388.8 350.2L388.3 348.3L387.4 348.3L382.2 342.3L379.1 340.2L377.8 338.8L378.1 337.8L376.7 338L374.1 335.3L370.5 331.3L368.9 328L367 326.5L367.1 325.2L365.4 323.5L365.1 322L362.9 320.8L360.5 314.9L358.8 314.1L356.2 310.5L357 309.3L356.3 309.8L356.7 308.3L355.5 307.1L356 305.4L351.8 301.5L351.3 296.7L349.8 296.2L349.9 295.2L349.8 295.8L348.8 295.2L347.9 293.7L348.4 292.7L347.4 293.3L348.4 292.7L346.4 292.4L339.7 285.3L325.8 268.7L317.1 256.1L305.9 248.8L302.7 241.8L300.3 240.6L298.1 238.1L297.4 234.5L296.3 233.2L295.8 233.7L295.9 232.9L295 232.8L290.9 234.4L290.8 235.5L289.5 236.5L289 240.3L289.6 240.8L288.2 243.5L285.7 245.9L282 247.8L278.9 248.2L277.1 247L276.9 248.3L275.4 249L273.5 249.2L273.4 247.9L273.3 248.5L272 248.5L271.6 247.6L271.1 248.1L271.4 247.3L270.8 247.3L271 248.3L270.7 246.8L271.4 246.7L270.9 246.3L272.4 246.8L270.4 246L269.5 243.9L267.4 242.4L266.6 248.1L268.7 254L266.7 258.3L263.8 260.5L264.3 260L265 260.5L263.7 260.6L264.9 260.9L264.9 263.4L260.7 270L260.4 274.5L262.3 280.9L269.3 296.3L275.7 313.3L276 317.2L276.4 316.3L280.8 336.3L280 335.8L281.4 344.1L281.2 351.4L278.5 360.4L278.4 368.6L277.2 373.6L273.7 378.8L273.3 380.9L272.5 380.7L273.2 380.9L272.5 381.2L273 381.9L272.2 382L272.2 380.7L270.1 387.8L269.1 388.8L267.9 389L268.4 388.2L267.8 388.7L268.8 398.3L268.3 411.4L269.2 424L267.7 432.6L266.4 432.9L267.6 433.3L266.7 434.8L267.7 437L266.3 435.8L266.1 434.3L266.5 437.8L265.8 439.7L263.1 444.5L259.5 447.8L258.5 447.4L257.1 448.7L256.7 448L257.3 447.7L254.9 448.1L253.3 450.7L249.9 450.8L243.3 454.5L241.5 457.2L240.9 460.3L237.8 465.1L239.9 475.6L241.2 478.8L242.9 480.7L243.1 482.5L240.5 491.8L247.1 504.3L246.8 516.1L237.9 528.8L236.5 530.2L235.1 530.1L236 531L235.1 530.3L235 531L235.8 531.2L234.1 531.8L234.5 534.7L232.8 532.8L229.8 536.3L222.2 540.1L215.2 536.6L210.6 535.6L209.7 534.2L209.7 535.2L208.1 534.1L207.9 532.9L206.9 532.4L207.2 531.6L208.2 531.6L208.8 529.9L207.8 527.8L204.8 527.8L202.4 529.2L199.8 529.3L198.7 531.5L194.8 532.2L193.6 530.7L192.7 533L187.1 533.5L187.2 532.7L185.6 532.3L186 530.7L186.3 531.3L185.6 529.4L182.2 528.5L181.9 527.4L180.3 526.4L173.2 524.5L172.6 523.2L173.1 522.8L173.3 523.6L173.5 521.9L172.4 521.8L172 520.2L169.8 520.5L169.2 519.8L169.9 519.9L167.3 518.7L162.9 514L162.3 512.3L160.9 512.6L159.4 510.6L156.1 510.6L157 511.5L156 514L153.1 516.1L150.9 515.4L148.4 516.2L145.3 515.6L146.6 517.9L145.3 521.9L144.3 522.3L145 523.1L144.8 524.4L143.4 525.3L144.3 525.8L143.2 530.2L146.6 535.5L153.1 540.3L155 544.7L155.9 545.1L156.4 547.7L159.3 550.3L160.5 553.2L160.1 554.5L160.5 553.9L161 554.7L162.5 554.9L162.3 559.1L160.9 558.8L161.8 559.1L161 559.7L161.7 559.9L161.2 560.7L160.4 560.5L160.6 559.1L160 561.2L151.9 566.1L150.5 568.5L149.4 568.7L146.4 574.5L147.3 576L146.4 574.5L145.3 577.1L141.3 580.8L141.4 587.4L138.1 588.7L135.8 588.7L134.6 584.8L135.1 585.1L131.9 583.3L130.2 581L127.4 585.8L125.9 590.8L119.6 593.9L118.8 596.6L117 598.2L113.4 599.2L111.7 598.5L105.6 599L100.3 601.9L95.9 609.5L98.2 619.6L97.9 623.4L98.8 627.8L97.8 629L98.1 632.5L95.2 639.5L93.5 641.8L92 642.3L90.6 647.7ZM758.4 371L759.7 372.8L762.9 374.2L767.5 374.5L770.9 371.3L770.6 370.3L773.5 363.9L778.8 357.8L782 356.1L785.5 357.3L789.8 355.7L791.3 356.1L794.5 352.1L795.6 352L796.8 347.1L798.4 344.4L800.6 342.7L803.3 337.3L804.5 337.5L804.7 336.4L806.5 336.2L807.6 333.7L811.4 330.8L812.6 330.8L815.3 328.8L817.6 328.6L819 325.6L821.2 324.2L823.6 324.1L828 319.3L829.7 314.7L833.1 310.8L829.3 307.8L830.1 304.9L833.6 301L836.3 299.7L840.1 300L840.5 303.4L845.7 307.2L851.8 304.9L854.5 305.3L855.6 304.4L856.9 305.4L859.8 301.9L864.4 299.8L868.7 293.1L871.1 291.7L872.2 289.2L875.3 285.8L880.9 282.6L881.7 281.4L884.1 281.1L888.5 276.6L891 276.5L892.1 274.3L894.3 272.6L902.8 270.2L904 270.6L906.9 267.7L909 268.2L910.9 266.7L912.5 267.3L912.9 265.2L913.7 265.2L913.5 264.4L917.1 262.4L919 260.1L926.1 257.1L927.2 257.7L927.5 256.9L936 256.8L939.1 258.7L941.6 256.9L945.2 256.9L945.8 255.8L945.3 254.6L947 252.9L948.4 249.4L946.4 246.4L944 245.2L943.8 242.4L944.4 240.8L949.4 238.1L950 235L949.5 233.1L944.8 229.3L939.7 228.5L936.6 228.5L933.4 230.3L927.2 231L925.2 235.6L923.1 236.9L920.4 237.2L918.3 241.2L914.9 242.6L914 244.7L911.7 246.1L910.2 248.7L911 250.8L908.6 252.8L909.2 253.9L905.9 255.7L905.3 258.1L904.3 257.7L899.1 260.6L898.2 262.8L895.9 263.9L881.3 267L871.3 266.6L868.5 265.1L868.4 264L867.5 264.3L867.9 263.8L866.7 262.9L865.5 257.7L866.4 257.1L864.4 255L863 250.9L863.6 250.2L862.5 248.6L862.6 246.1L858.9 243.8L856.5 245.2L851.7 253L852.8 260.7L853.9 262L853.3 266.2L854.8 267.3L853.7 271.4L851.1 273.6L849.1 272.3L844.5 273.7L843.9 275.2L840.9 275.4L839.7 278L840.8 278.5L839.7 278L838.2 278.7L838.2 280.8L837 282.1L837.2 287.5L831.9 290.6L826.5 289.3L825.3 288.1L825.5 286.9L824 286.2L822.3 286.7L819.3 285.2L818.4 286.3L821.4 287.6L822.1 291.3L821.2 291.9L821.1 295.7L819.9 297L820.8 299.1L820.1 299.4L820.5 300.7L814.5 304L807.7 311.9L796.8 317.4L794.6 325.2L790.4 326.7L787.8 323.8L784.8 322.5L781.3 323.9L781.7 327.6L783.6 330L790.1 331.2L790.6 334.4L789.3 339.5L784 345.3L780.8 347.1L778.7 347.2L778.4 346.2L777.3 345.8L777.4 344.9L776.3 345.1L776.2 344.3L772.4 344.4L772.5 345.5L774.9 347.1L774.9 349.9L774.2 352.4L771.1 355.2L769.5 354.8L767.8 352.5L766.9 348L765.2 353.3L767.3 358.5L764.6 361.7L762.1 362.3L760.9 363.8L758.4 371ZM621 451.7L622.1 453L623.5 457.7L622.8 461.6L624.3 465.8L625.3 466L624.3 465.6L630.8 463.9L635.3 464.3L633.8 472.1L634.6 474.4L635.7 471.9L637.6 450L639 446.5L640.3 446.6L644.7 441.3L646.9 441.8L650.7 441L655.5 438.3L657 438.3L657.9 432.2L659.3 430.5L660.4 426.8L662.7 425.4L664 425.7L663.6 426.9L666.1 426.8L664.9 425.6L665.3 420.7L666.3 419.9L667.3 416.7L668.5 417.4L668.1 415.7L670.2 412L672.3 409.9L674.4 409.8L676.2 407.4L679.9 406.7L680.7 405.5L682 405.8L683.8 399.7L688 395.6L693.4 394.5L705.5 393.9L706.4 392.1L709.9 389.6L710 388.6L712.4 388L711.7 387.3L712.1 385.9L714.2 383.1L718.2 381L720.3 380.8L723.3 384.1L723.9 383.8L724.8 382.3L727.8 380.4L729.5 374.4L732 370.8L727.9 373.6L722.5 375.1L709.4 375.6L700.3 370.8L698.9 367.3L695.9 365.8L695.3 364.2L693.5 363.8L693.7 362.7L689.8 363.9L685.3 368.3L682.5 375.5L678.2 380.4L677.7 385.9L676.5 388.4L672.5 393.5L671.5 393.6L667.2 397L662.3 406L657.7 410.2L653.5 416L653.4 422.8L651 424.7L647.1 426.2L647.2 428L639.8 433.2L638.9 435.8L636.3 436.8L633.8 438.4L633.6 439.8L628 442.6L625.3 448.6L621.8 449.8L621 451.7ZM732.7 462.6L733.8 462.3L733.4 463.4L734.9 463.7L735.4 462.7L734.8 461.4L736.5 461.1L736.2 464.2L737.3 465.9L738.9 466.5L737.8 467.8L741.1 467.4L742.6 465.4L741.4 465.1L743.1 462.4L745.5 463.9L746.7 463.2L746.2 462.3L748.2 462.1L748.1 461.2L749.6 461.6L750.4 460.8L750.1 459.7L751.7 460.7L752.4 459.1L751.8 457.8L752.6 457.1L753.1 458L753.9 456.4L756.2 457.7L757.1 456.7L757.6 457.1L755.4 455.8L757.4 453.8L758.7 454.5L760.4 453.5L762.2 454.6L762.9 453.9L762.6 451.5L764.2 450.7L763.2 449.9L763.7 449.3L763 449.8L761.7 449.3L759.9 446.4L757.6 445.4L757 443.9L754.7 444.3L755.5 446L755 446.8L754.2 446.6L754.2 445.3L753.5 446.3L751.9 445.2L752.4 447L753.2 447.4L752.6 447.8L751.8 446L750.6 445.5L745.4 449.7L745.5 450.7L748.1 451.7L748.1 453.5L747.5 452.1L745.5 451.2L744.4 451.5L744.3 452.4L743.4 451.4L739.9 451.7L736.5 453.1L735.3 452.6L733 454.3L732.8 455.5L734.7 458.2L734.8 459.6L733.9 459.9L732.7 462.6ZM218.8 276.3L220 276.9L220.1 279.5L222.5 282.7L229.2 287.9L230 287.5L229.8 286.7L230 287.4L233.7 286.3L234.3 284.5L237.9 281L237.4 276.7L235.4 272.6L232.1 269.9L231.8 270.7L228.5 270L228.7 268.5L228 268.8L225.6 266.8L221.2 270.4L220.9 271.4L221.8 272.7L221 271.5L219.7 272L220.2 275.8L218.8 276.3ZM56.7 666.6L58.4 670.2L58.1 678.6L60.3 679.6L60.9 681.2L61.2 679.4L64.3 678.3L66.1 675.2L67.7 668L67.2 665.1L71.3 658.6L71.2 655.3L69 657.8L62.1 660L59.5 660L56.8 664.6L57.2 665.9L56.7 666.6ZM203.6 241.3L204.6 242.6L203.7 243.8L205.2 244.2L206.3 245.6L205.2 246.7L206 247.7L205.4 248.9L206 250.5L205.2 251.3L206.8 255L207.1 258L209 260.4L209.2 262.8L208.2 263.7L209.3 265L210.9 265L212.2 259.2L211.5 256.5L212.4 254.8L212.1 247.8L213.2 245.6L210 240.9L210.1 243.5L208 244.5L206 243.8L203.7 240.4L203.6 241.3ZM683.1 491.3L684.5 491.4L686 494L687.3 494.8L687.7 497L688.7 497.9L688.5 499.5L695.8 495.6L696.1 494.8L694.4 493.6L696.8 489.8L692.9 489.7L690.9 487.9L683.1 491.3ZM664.7 500L667.9 501.1L668.1 502.6L667.3 503.3L667.5 504L668.4 503.7L668.1 504.9L669.3 503.7L673.4 503.8L671.4 501.8L671.7 500.7L672.9 500.3L672.2 499.7L669.8 501L667.5 500.4L667 499L664.7 500ZM679.9 505.5L681.6 506.8L683.5 504.9L685.5 505.3L686.4 503.1L687.8 503L687.9 502.2L687 500.8L685.4 501.9L685.7 503.8L684.3 504L684.4 502.8L683.6 502.7L683.1 504.2L682.1 503L679.9 505.5ZM703 477.7L711.2 478.9L710.7 476L708.6 476.2L708.5 475.4L707 474.6L706.8 476.1L705.6 477.3L703 477.7ZM50 750.2L50.5 753L54.7 751.3L53.3 749.3L50.7 749.2L50 750.2ZM234.3 375.4L234.6 376.2L236.9 375.9L238.3 374.4L238 372.8L237 372.8L234.3 375.4ZM242.7 373.5L246.9 374.2L247.4 372.6L247 371.9L245.4 372.1L242.7 373.5ZM676.3 511L678.2 512.2L679.7 509.9L678.1 510.8L676.9 510.2L676.3 511ZM638.7 531.8L639.7 532.2L640.8 531.1L639.4 530.2L638.7 531.8ZM93.3 770.6L93.8 771.5L94.6 771.3L95.4 770L94.2 769.8L93.3 770.6ZM570.7 565.7L572.1 564.4L571.5 563.2L570.7 565.7ZM742.1 464.7L742.9 464.7L743.1 465.6L744 464.6L742.7 464L742.1 464.7ZM751.8 462.2L753.4 461.6L753.1 460.5L751.8 462.2ZM592.4 552.8L594.4 552L592.5 551.8L592.4 552.8ZM692.1 505.2L692.9 505.5L693.5 504.1L692.1 505.2ZM279.5 612.9L282.2 612.3L283 611.1L282.2 612.3L279.5 612.9Z" fill="none" stroke="#6E2A9E" stroke-width="5" stroke-linejoin="round"/>
  </g>
</svg>