<svg xmlns="http://www.w3.org/2000/svg" viewBox="0 0 1000 1000" width="1000" height="1000">
  <defs>
    <linearGradient id="tile" x1="0" y1="0" x2="0" y2="1">
      <stop offset="0" stop-color="#FCFAFF"/>
      <stop offset="1" stop-color="#EDE2F8"/>
    </linearGradient>
  </defs>
  <rect x="0" y="0" width="1000" height="1000" rx="200" ry="200" fill="url(#tile)"/>
  <g transform="translate(50 50) scale(0.9)">
    
    <defs>
      <clipPath id="fav-clip"><path d="M20 749.9L23.1 757.7L21.3 761.2L24.7 767.4L27.3 767.7L27.7 769.6L35.4 769.9L37.7 771.7L44.5 788.6L55.2 789.5L60.2 792.1L69 804.3L70.2 809.6L72.3 810.3L73.3 815.9L76.4 817.6L79.5 835.5L77.9 845.4L74.6 847.3L76.9 848.2L76.6 855.6L74.4 860L68.4 859.6L68 869L58.5 884.6L54.2 902.9L54.7 913.1L63.3 938.6L64.7 938.1L71.2 944.2L76.2 941.6L80.2 942L87.9 948.5L91.4 946L98.1 930.6L114.6 923L122 922.7L125.3 918.8L126.9 914.8L125.1 903.7L127.2 887L130.4 883.4L140.7 882.8L146.2 876.8L152.5 873.7L155.9 860L159.3 857.2L165.4 856.5L170.7 859.6L172.5 865.2L170.5 868.4L168.4 864.3L167 870.6L168.5 874L171.7 873.1L171.1 871.3L174.1 868L181.9 866.8L201 872.9L210.7 880.7L224.1 877.2L224.1 875.3L228.2 873.4L228.4 870.4L233.3 864.3L240.5 864.4L245.4 860.6L244.8 857.2L239.1 854.3L239.5 849.4L233.4 845L224.3 841L217.5 840.8L209.6 836L201.1 820.3L187.4 810.1L184.6 805.3L184.4 800.9L180.2 799.3L177.8 792.4L170.1 787.6L166.3 790.2L159.4 789.9L149.9 794L144.4 793L138.9 789.6L126 775.5L122.1 773.8L119.6 769.4L110.7 768.1L104 764.5L103.2 761.7L102.8 762.8L100.9 749.4L107.1 726.4L118.7 704.2L132.6 689.4L135.3 690.5L141.7 689.4L149.6 694.4L159.6 689.9L169.5 690.8L179.4 700L179.7 704.4L180.8 703.4L180 704.7L181.8 704.9L180.9 708.9L184.1 708.9L189.5 714.6L195.8 717.9L200.1 727L202.4 737.9L202.7 736.7L208.2 739.2L207.5 740.6L208.3 739.2L212.9 739.5L212 741.7L217 741.8L212.5 742.9L212.9 747.3L210.9 747L211.2 744.9L207.9 741.3L204.8 743.5L207.4 748.7L216.2 752.1L217.8 747.6L224.4 741L227.9 734.5L240.4 721.8L245.5 719.8L245 718.7L245.4 720.3L248.4 718.9L263.5 705.6L265.4 705.8L265.3 704.1L266.4 705.1L267.1 702.9L266.7 705.3L267.4 702.5L274.2 697.6L299 684.4L312.6 681.1L314.1 682.4L314.6 677.6L316.4 679L326.1 674.5L326.6 675.6L317.6 679.3L314.9 682.6L318.1 680.5L329.4 681L337.7 683.1L338.6 685.2L340.4 683.6L339.7 685.5L342.8 686.7L345.1 684.1L345.5 686.8L346.1 685.8L359.3 692.1L378.7 712L385.3 713.5L386.4 715.3L401.1 717.6L405.2 720.1L406.4 723.4L416.6 732.6L417.9 735.7L427.5 742.5L429.2 739.9L427.5 742.5L431.8 744.9L432.7 747.2L445.3 751.7L451.1 759L455.6 759.7L461.7 764.1L467 764.6L480.9 775.9L494.9 779.5L494.6 781.2L497.1 782.4L494.3 781.7L503.7 786.8L518.3 788.7L518.9 790.6L520.3 790.2L518.6 790.9L520.6 791.5L522 790.2L526.9 791.5L534.4 800L543 803.5L554.3 811.5L559 821.3L572.6 834L571.2 828.8L573.7 818L582.6 805.7L581.9 800.2L586.3 773.7L583.9 772L582.1 761.5L584.7 754.3L588.2 751.8L584.1 755.3L583.8 753.2L585.2 753.4L585 750.8L587 752.1L584.8 750.6L585.1 748.9L595.8 724.9L605.9 707.2L624.8 681.6L633.3 671.8L635.1 672.3L634.8 670.5L635.6 672.9L634.9 670.5L637.6 667.5L661.9 643.5L663.7 643.6L663.3 641.9L663.9 643.5L663.4 641.9L678.6 627.4L704.2 610.2L705.5 610.9L720.5 602.6L734.8 599.1L741.5 599.4L741.5 601.2L742.5 599.6L747.7 600.7L745.9 602.1L747.6 600.8L748.8 602.3L748.8 601L750.7 603.1L750.8 605.2L748.4 605.3L749.2 606.4L753.5 606.7L762.6 612.2L768.7 613.1L775.5 610.5L791.6 610.6L805.3 614.6L814.5 614.6L816.2 613.4L806.6 605.7L806.4 602.8L809.9 594.9L815.1 588.7L820.8 587.1L827.2 589.4L823.5 592.2L823.7 596.9L827.1 597.3L827.2 599.7L830.8 603.1L835 602.2L838.1 604.1L839 602L846.1 604L854.3 600L855.2 593.6L863.9 590.2L866 583.2L869.7 583L870.1 585.3L877.7 583.4L875.7 581.5L868.7 581.6L868.2 574L873.6 568.4L877.2 567.3L882.2 570.4L895.4 562.9L900.6 563.7L901.9 561.6L917.8 559.2L928.4 559.9L930.2 563.2L928.5 563.7L929 565.4L931.1 564.8L933.4 562.2L931.3 561.3L931.9 560L930.9 561.2L931.2 558.9L934.3 559.5L934.4 554.7L938.6 552.2L937.4 550L940.4 538.4L942.7 537.6L941.6 539.3L944 539.4L949 531.1L954.7 530.1L957.7 532.2L959.6 528.7L964 526.7L966.2 528.5L967.5 526.2L970.4 527L979.1 519.6L978.3 517.9L980 516.1L971.7 514.9L971.3 513.2L969.5 513.5L969.5 515.1L966.7 514.3L964.8 516.6L953.5 514.8L949.3 520.9L942.3 524.5L943.4 525.9L941.9 527.3L933.2 533.1L928.5 542L913.3 536.6L900.8 524.2L894.4 512.5L889.1 485.8L885.6 478.6L885 472.1L881.5 469.6L880.7 466.3L881.8 467.6L882.2 465.8L881 465.1L882.4 464.2L892.6 467.1L888.6 471.3L893.7 468.6L892 470.2L893.2 470.9L896 468.7L894.7 471.2L899.1 469.3L902.6 472.4L903.5 471.6L901.1 473.3L904.2 472.7L903.6 477.1L898.8 477L898.6 478.7L895.3 477.8L899.7 479.8L895.5 480.1L904.9 478.7L904.8 472.9L898.3 468.5L872.5 458.7L870.5 454.2L872.3 455L861.3 437.2L860 424.6L863.6 421.3L865 417.3L865.6 405.1L872.9 389.2L888.2 369.8L888.4 362.9L891.5 353.4L902.5 340.7L905.6 333.8L905.5 329.6L908.6 326.1L905.6 318.2L905.1 308.8L902.7 307.3L901.2 308.2L898.8 314.5L896.5 315L894.9 319.2L886.1 328.4L880.8 339.8L869.4 346.7L861.3 355.4L852.7 360.6L849.9 366.5L846.6 367.6L841.7 373.7L840.1 373L836.7 380.7L826.3 388.1L824.1 392.8L817.8 397.3L808.3 399.4L797.6 399.4L796.4 400.7L797.7 399.1L796.3 400.4L787.5 400.3L769.7 397.9L748.7 392.4L739 386.1L739.5 384.1L736.4 379.9L738 378.2L735.8 377.2L737.9 377L735 377.2L732.1 373.9L732.5 363.7L730.3 357.6L726.6 360.1L721.6 359.8L711.1 357.2L707.6 354.2L703 355.4L672.4 347.9L657.4 343.2L657.5 341.6L646.7 338.7L621.7 327.4L597.9 314.7L592.4 310.3L593.4 308.9L590.8 308.8L589.6 305.7L590.8 304.8L588.4 301.7L569.8 290.3L568.4 286.2L549 274L543.1 269.3L543 266.6L540.3 267.1L531.5 260.4L524 251.3L521.5 245.5L506.1 231.8L504.3 227.9L502 228L497.6 223.5L485.7 208.8L482.4 201.1L478.8 199.2L474.7 189.3L467.4 181.8L468.8 179.8L467.7 180.6L468.3 178L466.3 176L467.2 173.1L460.1 166.7L459.1 158.5L455 156L453.5 153.5L454.3 151.8L452.6 152.8L454.3 151.7L450.9 151.4L439.7 139.4L416.2 111.3L401.6 90L382.7 77.8L377.3 66L369.6 59.7L366.5 51.5L357.4 53.6L355.1 57.1L355.1 64.3L352.9 68.8L342.3 76.1L337.2 76.7L334.2 74.7L333.8 77L331.2 78.1L328.1 78.5L327.8 76.2L325.5 77.4L324.6 75.3L323.8 77L323.7 73.6L326.3 74.4L322.9 73.1L321.4 69.5L317.8 67L316.4 76.7L320 86.5L316.7 93.8L311.7 97.6L313.7 97.5L311.7 97.8L313.7 98.2L313.7 102.4L306.5 113.5L306 121L331.9 186.5L340.3 225.3L339.1 224.5L341.4 238.3L341.1 250.7L336.6 265.9L336.4 279.6L334.3 288.2L327.8 300.3L326.5 300.1L327.2 302L325.9 302.2L325.8 300L322.3 312L318.5 313.6L320.9 373L318.3 387.6L316.2 387.9L318.2 388.6L316.7 391.3L318.3 395L315.6 390.4L315.2 399.5L310.5 407.5L304.5 413.2L302.9 412.5L300.5 414.7L300.9 413L296.7 413.6L294.1 418L288.2 418.1L277.2 424.4L267.9 442.2L271.5 460L276.9 471.6L272.6 487.2L283.6 508.2L283.1 528.1L268.2 549.6L265.8 552L263.5 551.8L264.9 553.2L263.4 552.1L264.6 553.7L261.7 554.6L262.4 559.5L259.6 556.3L254.4 562.1L241.6 568.6L217.9 558.6L215.9 555.7L219.1 551.5L217.5 547.8L204 550.4L202 554.1L195.5 555.3L193.5 552.7L191.9 556.7L182.5 557.6L182.7 556.2L180 555.4L181.2 553.7L180 550.6L174.3 549.1L171 545.5L159.1 542.4L158.1 540.1L159.3 540.8L159.7 538L157.8 537.8L157.1 535.1L153.4 535.6L149.1 532.5L140.8 521.8L138.4 522.3L135.9 518.9L130.3 519L131.8 520.5L130.2 524.7L125.3 528.2L112 527.3L114.2 531.3L112.2 538L110.5 538.6L111.2 542.1L109 543.6L110.5 544.6L108.6 551.9L114.2 560.9L125.3 569L130.8 581.5L135.7 585.9L137.8 590.7L137.1 592.9L137.8 591.8L141.1 593.5L140.7 600.6L138.4 600.2L139.9 600.6L138.9 603.3L137.5 603.1L137.9 600.6L136.8 604.1L119 616.8L114 626.6L115.5 629.1L114 626.6L112.1 630.9L105.4 637.2L105.5 648.3L96.2 650.4L94.9 644.5L89.6 641.4L86.7 637.5L79.5 654L68.7 659.2L67.5 663.8L64.4 666.6L58.3 668.2L55.4 667L45.1 667.9L36.2 672.8L28.9 685.6L32.8 702.6L33.8 716.5L32.1 718.4L32.5 724.3L27.7 736.1L22.3 740.9L20 749.9Z"/></clipPath>
      <linearGradient id="fav-fill" x1="0" y1="380" x2="0" y2="1000" gradientUnits="userSpaceOnUse">
        <stop offset="0" stop-color="#A880C8"/>
        <stop offset="1" stop-color="#9168B6"/>
      </linearGradient>
    </defs>
    <g clip-path="url(#fav-clip)">
      <rect x="0" y="0" width="1000" height="1000" fill="#E0CDEE"/>
      <rect x="0" y="380" width="1000" height="620" fill="url(#fav-fill)"/>
      <rect x="0" y="368" width="1000" height="24" fill="#F4D35E"/>
    </g>
    <path d="M20 749.9L23.1 757.7L21.3 761.2L24.7 767.4L27.3 767.7L27.7 769.6L35.4 769.9L37.7 771.7L44.5 788.6L55.2 789.5L60.2 792.1L69 804.3L70.2 809.6L72.3 810.3L73.3 815.9L76.4 817.6L79.5 835.5L77.9 845.4L74.6 847.3L76.9 848.2L76.6 855.6L74.4 860L68.4 859.6L68 869L58.5 884.6L54.2 902.9L54.7 913.1L63.3 938.6L64.7 938.1L71.2 944.2L76.2 941.6L80.2 942L87.9 948.5L91.4 946L98.1 930.6L114.6 923L122 922.7L125.3 918.8L126.9 914.8L125.1 903.7L127.2 887L130.4 883.4L140.7 882.8L146.2 876.8L152.5 873.7L155.9 860L159.3 857.2L165.4 856.5L170.7 859.6L172.5 865.2L170.5 868.4L168.4 864.3L167 870.6L168.5 874L171.7 873.1L171.1 871.3L174.1 868L181.9 866.8L201 872.9L210.7 880.7L224.1 877.2L224.1 875.3L228.2 873.4L228.4 870.4L233.3 864.3L240.5 864.4L245.4 860.6L244.8 857.2L239.1 854.3L239.5 849.4L233.4 845L224.3 841L217.5 840.8L209.6 836L201.1 820.3L187.4 810.1L184.6 805.3L184.4 800.9L180.2 799.3L177.8 792.4L170.1 787.6L166.3 790.2L159.4 789.9L149.9 794L144.4 793L138.9 789.6L126 775.5L122.1 773.8L119.6 769.4L110.7 768.1L104 764.5L103.2 761.7L102.8 762.8L100.9 749.4L107.1 726.4L118.7 704.2L132.6 689.4L135.3 690.5L141.7 689.4L149.6 694.4L159.6 689.9L169.5 690.8L179.4 700L179.7 704.4L180.8 703.4L180 704.7L181.8 704.9L180.9 708.9L184.1 708.9L189.5 714.6L195.8 717.9L200.1 727L202.4 737.9L202.7 736.7L208.2 739.2L207.5 740.6L208.3 739.2L212.9 739.5L212 741.7L217 741.8L212.5 742.9L212.9 747.3L210.9 747L211.2 744.9L207.9 741.3L204.8 743.5L207.4 748.7L216.2 752.1L217.8 747.6L224.4 741L227.9 734.5L240.4 721.8L245.5 719.8L245 718.7L245.4 720.3L248.4 718.9L263.5 705.6L265.4 705.8L265.3 704.1L266.4 705.1L267.1 702.9L266.7 705.3L267.4 702.5L274.2 697.6L299 684.4L312.6 681.1L314.1 682.4L314.6 677.6L316.4 679L326.1 674.5L326.6 675.6L317.6 679.3L314.9 682.6L318.1 680.5L329.4 681L337.7 683.1L338.6 685.2L340.4 683.6L339.7 685.5L342.8 686.7L345.1 684.1L345.5 686.8L346.1 685.8L359.3 692.1L378.7 712L385.3 713.5L386.4 715.3L401.1 717.6L405.2 720.1L406.4 723.4L416.6 732.6L417.9 735.7L427.5 742.5L429.2 739.9L427.5 742.5L431.8 744.9L432.7 747.2L445.3 751.7L451.1 759L455.6 759.7L461.7 764.1L467 764.6L480.9 775.9L494.9 779.5L494.6 781.2L497.1 782.4L494.3 781.7L503.7 786.8L518.3 788.7L518.9 790.6L520.3 790.2L518.6 790.9L520.6 791.5L522 790.2L526.9 791.5L534.4 800L543 803.5L554.3 811.5L559 821.3L572.6 834L571.2 828.8L573.7 818L582.6 805.7L581.9 800.2L586.3 773.7L583.9 772L582.1 761.5L584.7 754.3L588.2 751.8L584.1 755.3L583.8 753.2L585.2 753.4L585 750.8L587 752.1L584.8 750.6L585.1 748.9L595.8 724.9L605.9 707.2L624.8 681.6L633.3 671.8L635.1 672.3L634.8 670.5L635.6 672.9L634.9 670.5L637.6 667.5L661.9 643.5L663.7 643.6L663.3 641.9L663.9 643.5L663.4 641.9L678.6 627.4L704.2 610.2L705.5 610.9L720.5 602.6L734.8 599.1L741.5 599.4L741.5 601.2L742.5 599.6L747.7 600.7L745.9 602.1L747.6 600.8L748.8 602.3L748.8 601L750.7 603.1L750.8 605.2L748.4 605.3L749.2 606.4L753.5 606.7L762.6 612.2L768.7 613.1L775.5 610.5L791.6 610.6L805.3 614.6L814.5 614.6L816.2 613.4L806.6 605.7L806.4 602.8L809.9 594.9L815.1 588.7L820.8 587.1L827.2 589.4L823.5 592.2L823.7 596.9L827.1 597.3L827.2 599.7L830.8 603.1L835 602.2L838.1 604.1L839 602L846.1 604L854.3 600L855.2 593.6L863.9 590.2L866 583.2L869.7 583L870.1 585.3L877.7 583.4L875.7 581.5L868.7 581.6L868.2 574L873.6 568.4L877.2 567.3L882.2 570.4L895.4 562.9L900.6 563.7L901.9 561.6L917.8 559.2L928.4 559.9L930.2 563.2L928.5 563.7L929 565.4L931.1 564.8L933.4 562.2L931.3 561.3L931.9 560L930.9 561.2L931.2 558.9L934.3 559.5L934.4 554.7L938.6 552.2L937.4 550L940.4 538.4L942.7 537.6L941.6 539.3L944 539.4L949 531.1L954.7 530.1L957.7 532.2L959.6 528.7L964 526.7L966.2 528.5L967.5 526.2L970.4 527L979.1 519.6L978.3 517.9L980 516.1L971.7 514.9L971.3 513.2L969.5 513.5L969.5 515.1L966.7 514.3L964.8 516.6L953.5 514.8L949.3 520.9L942.3 524.5L943.4 525.9L941.9 527.3L933.2 533.1L928.5 542L913.3 536.6L900.8 524.2L894.4 512.5L889.1 485.8L885.6 478.6L885 472.1L881.5 469.6L880.7 466.3L881.8 467.6L882.2 465.8L881 465.1L882.4 464.2L892.6 467.1L888.6 471.3L893.7 468.6L892 470.2L893.2 470.9L896 468.7L894.7 471.2L899.1 469.3L902.6 472.4L903.5 471.6L901.1 473.3L904.2 472.7L903.6 477.1L898.8 477L898.6 478.7L895.3 477.8L899.7 479.8L895.5 480.1L904.9 478.7L904.8 472.9L898.3 468.5L872.5 458.7L870.5 454.2L872.3 455L861.3 437.2L860 424.6L863.6 421.3L865 417.3L865.6 405.1L872.9 389.2L888.2 369.8L888.4 362.9L891.5 353.4L902.5 340.7L905.6 333.8L905.5 329.6L908.6 326.1L905.6 318.2L905.1 308.8L902.7 307.3L901.2 308.2L898.8 314.5L896.5 315L894.9 319.2L886.1 328.4L880.8 339.8L869.4 346.7L861.3 355.4L852.7 360.6L849.9 366.5L846.6 367.6L841.7 373.7L840.1 373L836.7 380.7L826.3 388.1L824.1 392.8L817.8 397.3L808.3 399.4L797.6 399.4L796.4 400.7L797.7 399.1L796.3 400.4L787.5 400.3L769.7 397.9L748.7 392.4L739 386.1L739.5 384.1L736.4 379.9L738 378.2L735.8 377.2L737.9 377L735 377.2L732.1 373.9L732.5 363.7L730.3 357.6L726.6 360.1L721.6 359.8L711.1 357.2L707.6 354.2L703 355.4L672.4 347.9L657.4 343.2L657.5 341.6L646.7 338.7L621.7 327.4L597.9 314.7L592.4 310.3L593.4 308.9L590.8 308.8L589.6 305.7L590.8 304.8L588.4 301.7L569.8 290.3L568.4 286.2L549 274L543.1 269.3L543 266.6L540.3 267.1L531.5 260.4L524 251.3L521.5 245.5L506.1 231.8L504.3 227.9L502 228L497.6 223.5L485.7 208.8L482.4 201.1L478.8 199.2L474.7 189.3L467.4 181.8L468.8 179.8L467.7 180.6L468.3 178L466.3 176L467.2 173.1L460.1 166.7L459.1 158.5L455 156L453.5 153.5L454.3 151.8L452.6 152.8L454.3 151.7L450.9 151.4L439.7 139.4L416.2 111.3L401.6 90L382.7 77.8L377.3 66L369.6 59.7L366.5 51.5L357.4 53.6L355.1 57.1L355.1 64.3L352.9 68.8L342.3 76.1L337.2 76.7L334.2 74.7L333.8 77L331.2 78.1L328.1 78.5L327.8 76.2L325.5 77.4L324.6 75.3L323.8 77L323.7 73.6L326.3 74.4L322.9 73.1L321.4 69.5L317.8 67L316.4 76.7L320 86.5L316.7 93.8L311.7 97.6L313.7 97.5L311.7 97.8L313.7 98.2L313.7 102.4L306.5 113.5L306 121L331.9 186.5L340.3 225.3L339.1 224.5L341.4 238.3L341.1 250.7L336.6 265.9L336.4 279.6L334.3 288.2L327.8 300.3L326.5 300.1L327.2 302L325.9 302.2L325.8 300L322.3 312L318.5 313.6L320.9 373L318.3 387.6L316.2 387.9L318.2 388.6L316.7 391.3L318.3 395L315.6 390.4L315.2 399.5L310.5 407.5L304.5 413.2L302.9 412.5L300.5 414.7L300.9 413L296.7 413.6L294.1 418L288.2 418.1L277.2 424.4L267.9 442.2L271.5 460L276.9 471.6L272.6 487.2L283.6 508.2L283.1 528.1L268.2 549.6L265.8 552L263.5 551.8L264.9 553.2L263.4 552.1L264.6 553.7L261.7 554.6L262.4 559.5L259.6 556.3L254.4 562.1L241.6 568.6L217.9 558.6L215.9 555.7L219.1 551.5L217.5 547.8L204 550.4L202 554.1L195.5 555.3L193.5 552.7L191.9 556.7L182.5 557.6L182.7 556.2L180 555.4L181.2 553.7L180 550.6L174.3 549.1L171 545.5L159.1 542.4L158.1 540.1L159.3 540.8L159.7 538L157.8 537.8L157.1 535.1L153.4 535.6L149.1 532.5L140.8 521.8L138.4 522.3L135.9 518.9L130.3 519L131.8 520.5L130.2 524.7L125.3 528.2L112 527.3L114.2 531.3L112.2 538L110.5 538.6L111.2 542.1L109 543.6L110.5 544.6L108.6 551.9L114.2 560.9L125.3 569L130.8 581.5L135.7 585.9L137.8 590.7L137.1 592.9L137.8 591.8L141.1 593.5L140.7 600.6L138.4 600.2L139.9 600.6L138.9 603.3L137.5 603.1L137.9 600.6L136.8 604.1L119 616.8L114 626.6L115.5 629.1L114 626.6L112.1 630.9L105.4 637.2L105.5 648.3L96.2 650.4L94.9 644.5L89.6 641.4L86.7 637.5L79.5 654L68.7 659.2L67.5 663.8L64.4 666.6L58.3 668.2L55.4 667L45.1 667.9L36.2 672.8L28.9 685.6L32.8 702.6L33.8 716.5L32.1 718.4L32.5 724.3L27.7 736.1L22.3 740.9L20 749.9Z" fill="none" stroke="#6E2A9E" stroke-width="5" stroke-linejoin="round"/>
  </g>
</svg>